<svg width="109" height="51" viewBox="0 0 109 51" fill="none" xmlns="http://www.w3.org/2000/svg">
<path d="M0.0160001 31.52V24.128H18.328V20.936H2.144V2.064H21.352V9.568H11.72V13.432H21.352V18.864H23.2V2.064H44.256V9.568H32.776V13.432H44.48V20.936H27.904V24.128H46.328V31.52H0.0160001ZM2.144 41.768V34.264H44.256V50.448H34.68V41.768H2.144ZM48.7579 31.52V24.128H67.0699V20.936H50.8859V2.064H70.0939V9.568H60.4619V13.432H70.0939V18.864H71.9419V2.064H92.9979V9.568H81.5179V13.432H93.2219V20.936H76.6459V24.128H95.0699V31.52H48.7579ZM50.8859 41.768V34.264H92.9979V50.448H83.4219V41.768H50.8859ZM98.0597 0.495996H107.636V34.712H98.0597V0.495996ZM108.14 49.384H97.4997V38.912H108.14V49.384Z" fill="#151719"/>
</svg>
