<svg width="393" height="530" viewBox="0 0 393 530" fill="none" xmlns="http://www.w3.org/2000/svg">
<path d="M100.768 187.736L12.5283 268.366C9.84526 270.828 12.0405 275.298 15.6053 274.616L140.75 250.789C142.852 250.391 144.822 251.907 144.991 254.066L150.338 321.835C150.544 324.449 153.359 325.983 155.648 324.714L249.197 272.741C250.492 272.022 252.105 272.173 253.25 273.139L355.411 360.133C357.85 362.217 361.565 360.285 361.302 357.084L354.679 273.082C354.51 270.904 356.255 269.086 358.413 269.18L504.253 275.431C508.024 275.601 509.45 270.525 506.167 268.65L381.622 198.115C379.333 196.808 379.145 193.532 381.303 191.997L463.595 133.016C466.447 130.971 465.002 126.425 461.512 126.444L372.766 126.671C370.233 126.671 368.488 124.114 369.408 121.728L393.367 60.0002C394.568 56.9128 391.36 53.9581 388.414 55.4355L298.186 101.045C296.422 101.935 294.283 101.234 293.383 99.4724L243.512 1.96605C242.218 -0.590934 238.634 -0.666696 237.208 1.81453L190.208 84.2631C189.157 86.1193 186.737 86.6496 185.011 85.3995L98.2537 23.0091C95.308 20.8877 91.4429 24.013 92.8688 27.3844L128.555 111.897C129.643 114.473 127.561 117.258 124.821 116.917L-43.9653 95.9874C-47.9054 95.4949 -49.594 100.874 -46.1042 102.768L100.036 181.845C102.231 183.039 102.588 186.05 100.749 187.717L100.768 187.736Z" fill="#25D085"/>
<path d="M315.022 296.038C325.435 275.505 314.002 249.66 290.459 246.927C293.521 232.188 291.861 219.802 280.323 209.63C276.898 206.603 271.691 203.039 267.021 203.385C267.021 200.704 269.65 199.545 270.93 196.708C285.374 164.515 248.167 133.948 220.11 155.934C217.774 157.768 212.239 163.581 206.462 169.653L186.535 185.671C182.954 183.786 177.159 179.409 174.323 178.285C163.062 173.839 152.009 174.583 142.028 181.693C132.272 188.647 106.913 215.287 98.4548 225.199C82.5928 243.761 70.7439 270.021 68.3049 294.412C67.6649 300.83 68.2185 308.13 68.4087 315.327L66.4887 328.699C65.6065 334.857 63.0118 340.652 58.9988 345.41L-163 574.966L-18.5468 665.872L206.15 448.182C211.651 443.564 217.55 439.429 223.829 435.969C247.129 423.099 270.325 412.72 292.31 391.667C303.467 380.976 326.733 359.352 335.122 347.952C349.341 328.63 338.253 300.761 315.022 296.021V296.038Z" fill="#FFC7C8"/>
<mask id="mask0_1_22" style="mask-type:luminance" maskUnits="userSpaceOnUse" x="-163" y="148" width="505" height="518">
<path d="M315.022 296.038C325.435 275.505 314.002 249.66 290.459 246.927C293.521 232.188 291.861 219.802 280.323 209.63C276.898 206.603 271.691 203.039 267.021 203.385C267.021 200.704 269.65 199.545 270.93 196.708C285.374 164.515 248.167 133.948 220.11 155.934C217.774 157.768 212.239 163.581 206.462 169.653L186.535 185.671C182.954 183.786 177.159 179.409 174.323 178.285C163.062 173.839 152.009 174.583 142.028 181.693C132.272 188.647 106.913 215.287 98.4548 225.199C82.5928 243.761 70.7439 270.021 68.3049 294.412C67.6649 300.83 68.2185 308.13 68.4087 315.327L66.4887 328.699C65.6065 334.857 63.0118 340.652 58.9988 345.41L-163 574.966L-18.5468 665.872L206.15 448.182C211.651 443.564 217.55 439.429 223.829 435.969C247.129 423.099 270.325 412.72 292.31 391.667C303.467 380.976 326.733 359.352 335.122 347.952C349.341 328.63 338.253 300.761 315.022 296.021V296.038Z" fill="white"/>
</mask>
<g mask="url(#mask0_1_22)">
<path d="M198.66 168.995L193.194 179.34C193.194 179.34 170.136 199.632 157.457 211.343C135.039 232.05 46.8211 339.321 46.8211 339.321C46.8211 339.321 33.1905 272.997 33.9862 270.973C34.7819 268.949 65.1393 218.799 65.1393 218.799L145.85 159.879" fill="url(#paint0_linear_1_22)"/>
<path opacity="0.65" d="M375.294 224.985L356.823 237.621C356.823 237.621 322.352 287.892 302.353 315.639C267.006 364.652 79.9239 560.849 79.9239 560.849C79.9239 560.849 205.301 580.599 208.932 578.67C212.563 576.742 301.601 507.556 301.601 507.556L399.762 333.067" fill="url(#paint1_linear_1_22)"/>
<path opacity="0.65" d="M306.529 103.83L297.863 108.933C297.863 108.933 282.243 126.751 273.161 136.646C257.092 154.135 170.776 226.998 170.776 226.998C170.776 226.998 231.751 225.182 233.481 224.352C235.21 223.521 276.777 196.362 276.777 196.362L320.592 135.885" fill="url(#paint2_linear_1_22)"/>
</g>
<defs>
<linearGradient id="paint0_linear_1_22" x1="68.0108" y1="304.204" x2="151.464" y2="159.417" gradientUnits="userSpaceOnUse">
<stop stop-color="#FFC7C8"/>
<stop offset="1" stop-color="#FEAEAD"/>
</linearGradient>
<linearGradient id="paint1_linear_1_22" x1="157.089" y1="544.952" x2="434.152" y2="415.753" gradientUnits="userSpaceOnUse">
<stop stop-color="#FFC7C8"/>
<stop offset="1" stop-color="#FEAEAD"/>
</linearGradient>
<linearGradient id="paint2_linear_1_22" x1="207.468" y1="216.694" x2="310.748" y2="126.595" gradientUnits="userSpaceOnUse">
<stop stop-color="#FFC7C8"/>
<stop offset="1" stop-color="#FEAEAD"/>
</linearGradient>
</defs>
</svg>
