<svg width="32" height="32" viewBox="0 0 32 32" fill="none" xmlns="http://www.w3.org/2000/svg">
<mask id="path-1-inside-1_103_10976" fill="white">
<path d="M16 -6.99382e-07C24.8366 -1.08564e-06 32 7.16344 32 16C32 24.8366 24.8366 32 16 32C7.16344 32 -3.13124e-07 24.8366 -6.99382e-07 16C-1.08564e-06 7.16344 7.16344 -3.13124e-07 16 -6.99382e-07ZM16 24C20.4183 24 24 20.4183 24 16C24 11.5817 20.4183 8 16 8C11.5817 8 8 11.5817 8 16C8 20.4183 11.5817 24 16 24Z"/>
</mask>
<path d="M16 -6.99382e-07C24.8366 -1.08564e-06 32 7.16344 32 16C32 24.8366 24.8366 32 16 32C7.16344 32 -3.13124e-07 24.8366 -6.99382e-07 16C-1.08564e-06 7.16344 7.16344 -3.13124e-07 16 -6.99382e-07ZM16 24C20.4183 24 24 20.4183 24 16C24 11.5817 20.4183 8 16 8C11.5817 8 8 11.5817 8 16C8 20.4183 11.5817 24 16 24Z" fill="#FAFAFB" stroke="#E7E9EC" stroke-width="2" mask="url(#path-1-inside-1_103_10976)"/>
</svg>
