<svg width="32" height="32" viewBox="0 0 32 32" fill="none" xmlns="http://www.w3.org/2000/svg">
<path d="M16 -6.99382e-07C24.8366 -1.08564e-06 32 7.16344 32 16C32 24.8366 24.8366 32 16 32C7.16344 32 -3.13124e-07 24.8366 -6.99382e-07 16C-1.08564e-06 7.16344 7.16344 -3.13124e-07 16 -6.99382e-07ZM16 24C20.4183 24 24 20.4183 24 16C24 11.5817 20.4183 8 16 8C11.5817 8 8 11.5817 8 16C8 20.4183 11.5817 24 16 24Z" fill="#FAFAFB"/>
<mask id="path-2-inside-1_103_10969" fill="white">
<path d="M16 -6.99382e-07C12.6211 -5.51687e-07 9.329 1.06968 6.59543 3.05573C3.86187 5.04178 1.82722 7.84223 0.783095 11.0557C-0.261033 14.2692 -0.261032 17.7308 0.783096 20.9443C1.82722 24.1578 3.86187 26.9582 6.59544 28.9443L11.2977 22.4721C9.93094 21.4791 8.91361 20.0789 8.39155 18.4721C7.86948 16.8654 7.86948 15.1346 8.39155 13.5279C8.91361 11.9211 9.93094 10.5209 11.2977 9.52786C12.6645 8.53484 14.3106 8 16 8L16 -6.99382e-07Z"/>
</mask>
<path d="M16 -6.99382e-07C12.6211 -5.51687e-07 9.329 1.06968 6.59543 3.05573C3.86187 5.04178 1.82722 7.84223 0.783095 11.0557C-0.261033 14.2692 -0.261032 17.7308 0.783096 20.9443C1.82722 24.1578 3.86187 26.9582 6.59544 28.9443L11.2977 22.4721C9.93094 21.4791 8.91361 20.0789 8.39155 18.4721C7.86948 16.8654 7.86948 15.1346 8.39155 13.5279C8.91361 11.9211 9.93094 10.5209 11.2977 9.52786C12.6645 8.53484 14.3106 8 16 8L16 -6.99382e-07Z" stroke="#ED6B1E" stroke-width="16" mask="url(#path-2-inside-1_103_10969)"/>
</svg>
