<svg width="32" height="32" viewBox="0 0 32 32" fill="none" xmlns="http://www.w3.org/2000/svg">
<path d="M16 -6.99382e-07C24.8366 -1.08564e-06 32 7.16344 32 16C32 24.8366 24.8366 32 16 32C7.16344 32 -3.13124e-07 24.8366 -6.99382e-07 16C-1.08564e-06 7.16344 7.16344 -3.13124e-07 16 -6.99382e-07ZM16 24C20.4183 24 24 20.4183 24 16C24 11.5817 20.4183 8 16 8C11.5817 8 8 11.5817 8 16C8 20.4183 11.5817 24 16 24Z" fill="#FAFAFB"/>
<mask id="path-2-inside-1_103_10970" fill="white">
<path d="M16 -6.99382e-07C13.475 -5.89012e-07 10.9859 0.597585 8.73615 1.7439C6.48639 2.89021 4.53986 4.5527 3.05573 6.59544C1.57159 8.63818 0.591977 11.0032 0.196986 13.497C-0.198006 15.9909 0.00283774 18.5429 0.783096 20.9443C1.56335 23.3457 2.90087 25.5283 4.68629 27.3137C6.47171 29.0991 8.65434 30.4366 11.0557 31.2169C13.4571 31.9972 16.0091 32.198 18.503 31.803C20.9968 31.408 23.3618 30.4284 25.4046 28.9443L20.7023 22.4721C19.6809 23.2142 18.4984 23.704 17.2515 23.9015C16.0045 24.099 14.7286 23.9986 13.5279 23.6085C12.3272 23.2183 11.2359 22.5496 10.3431 21.6569C9.45044 20.7641 8.78168 19.6728 8.39155 18.4721C8.00142 17.2714 7.901 15.9955 8.09849 14.7485C8.29599 13.5016 8.78579 12.3191 9.52786 11.2977C10.2699 10.2763 11.2432 9.4451 12.3681 8.87195C13.493 8.29879 14.7375 8 16 8L16 -6.99382e-07Z"/>
</mask>
<path d="M16 -6.99382e-07C13.475 -5.89012e-07 10.9859 0.597585 8.73615 1.7439C6.48639 2.89021 4.53986 4.5527 3.05573 6.59544C1.57159 8.63818 0.591977 11.0032 0.196986 13.497C-0.198006 15.9909 0.00283774 18.5429 0.783096 20.9443C1.56335 23.3457 2.90087 25.5283 4.68629 27.3137C6.47171 29.0991 8.65434 30.4366 11.0557 31.2169C13.4571 31.9972 16.0091 32.198 18.503 31.803C20.9968 31.408 23.3618 30.4284 25.4046 28.9443L20.7023 22.4721C19.6809 23.2142 18.4984 23.704 17.2515 23.9015C16.0045 24.099 14.7286 23.9986 13.5279 23.6085C12.3272 23.2183 11.2359 22.5496 10.3431 21.6569C9.45044 20.7641 8.78168 19.6728 8.39155 18.4721C8.00142 17.2714 7.901 15.9955 8.09849 14.7485C8.29599 13.5016 8.78579 12.3191 9.52786 11.2977C10.2699 10.2763 11.2432 9.4451 12.3681 8.87195C13.493 8.29879 14.7375 8 16 8L16 -6.99382e-07Z" stroke="#FBC926" stroke-width="16" mask="url(#path-2-inside-1_103_10970)"/>
</svg>
