<svg width="21" height="20" viewBox="0 0 21 20" fill="none" xmlns="http://www.w3.org/2000/svg">
<path fill-rule="evenodd" clip-rule="evenodd" d="M10.5001 2.14961C6.16466 2.14961 2.6501 5.66417 2.6501 9.99961C2.6501 14.335 6.16466 17.8496 10.5001 17.8496C11.8614 17.8496 13.1392 17.5039 14.2533 16.8961C14.4574 16.7848 14.6968 16.7567 14.9211 16.8179L17.0355 17.3946C17.4953 17.52 17.7802 17.5967 17.9893 17.6337C18.0636 17.6468 18.1107 17.6512 18.1371 17.6527C18.143 17.6479 18.1484 17.6426 18.1531 17.6366C18.1517 17.6102 18.1473 17.5631 18.1341 17.4888C18.0972 17.2797 18.0205 16.9949 17.8951 16.5351L17.3184 14.4206C17.2572 14.1963 17.2852 13.957 17.3966 13.7528C18.0043 12.6387 18.3501 11.3609 18.3501 9.99961C18.3501 5.66417 14.8355 2.14961 10.5001 2.14961ZM0.850098 9.99961C0.850098 4.67006 5.17055 0.349609 10.5001 0.349609C15.8296 0.349609 20.1501 4.67006 20.1501 9.99961C20.1501 11.538 19.7895 12.9944 19.1476 14.2868L19.642 16.0993C19.7538 16.5095 19.8536 16.8753 19.9067 17.1758C19.9605 17.4804 19.9971 17.8665 19.8499 18.2521C19.657 18.7574 19.2579 19.1565 18.7526 19.3494C18.3669 19.4967 17.9809 19.46 17.6763 19.4062C17.3758 19.3532 17.0099 19.2534 16.5998 19.1415L14.7872 18.6472C13.4948 19.289 12.0384 19.6496 10.5001 19.6496C5.17055 19.6496 0.850098 15.3292 0.850098 9.99961Z" fill="white"/>
</svg>
