<svg width="11" height="7" viewBox="0 0 11 7" fill="none" xmlns="http://www.w3.org/2000/svg">
<path d="M6.7149 5.58272C6.29641 6.07096 6.08716 6.31508 5.83816 6.40453C5.61962 6.48304 5.38057 6.48304 5.16202 6.40453C4.91302 6.31508 4.70377 6.07096 4.28528 5.58272L1.76404 2.64127C1.04365 1.80081 0.68345 1.38058 0.674625 1.0248C0.666955 0.715594 0.802797 0.420243 1.04255 0.224839C1.31843 0 1.8719 0 2.97885 0H8.02134C9.12829 0 9.68176 0 9.95763 0.224839C10.1974 0.420243 10.3332 0.715594 10.3256 1.0248C10.3167 1.38058 9.95654 1.80081 9.23615 2.64127L6.7149 5.58272Z" fill="#151719"/>
</svg>
