<svg width="20" height="22" viewBox="0 0 20 22" fill="none" xmlns="http://www.w3.org/2000/svg">
<path fill-rule="evenodd" clip-rule="evenodd" d="M7.60778 1.06574C8.37715 0.891634 9.1781 0.799805 9.9999 0.799805C10.8218 0.799805 11.6228 0.891647 12.3922 1.06578C13.2887 1.26868 13.7252 2.04131 13.8959 2.58605C14.0283 3.00838 14.3215 3.39132 14.7622 3.6377C15.1751 3.86852 15.6403 3.93603 16.0795 3.85837C16.6449 3.75841 17.5006 3.80625 18.0797 4.48269C18.8158 5.3426 19.4103 6.32341 19.8262 7.39142C20.2104 8.37777 19.6423 9.25447 19.1699 9.69385C18.8083 10.0301 18.5921 10.493 18.5921 10.9998C18.5921 11.5066 18.8083 11.9694 19.1699 12.3057C19.6423 12.7451 20.2104 13.6218 19.8263 14.6081C19.4104 15.6758 18.8162 16.6564 18.0804 17.5161C17.5012 18.1928 16.6452 18.2406 16.0798 18.1405C15.6405 18.0628 15.1751 18.1303 14.7622 18.3611C14.3213 18.6076 14.0281 18.9907 13.8958 19.4131C13.7251 19.958 13.2887 20.731 12.3918 20.9339C11.6225 21.108 10.8216 21.1998 9.9999 21.1998C9.17811 21.1998 8.37717 21.108 7.60781 20.9339C6.71122 20.731 6.27476 19.9583 6.10402 19.4136C5.97164 18.9912 5.67846 18.6083 5.23773 18.3619C4.82485 18.1311 4.35959 18.0636 3.92034 18.1412C3.35498 18.2412 2.49919 18.1934 1.92012 17.5169C1.18402 16.657 0.589559 15.6763 0.173587 14.6083C-0.210611 13.6219 0.35755 12.7451 0.829987 12.3058C1.19159 11.9695 1.40788 11.5066 1.40788 10.9998C1.40788 10.4929 1.1916 10.0301 0.829995 9.69379C0.357561 9.25442 -0.210597 8.37768 0.173607 7.39128C0.589563 6.32336 1.18398 5.34263 1.92004 4.48277C2.49911 3.80629 3.35492 3.75847 3.92029 3.85846C4.35954 3.93614 4.82481 3.86863 5.23769 3.6378C5.67843 3.39141 5.97162 3.00845 6.10399 2.5861C6.27473 2.04133 6.71118 1.26864 7.60778 1.06574ZM8.04395 2.9151C8.04041 2.91842 8.03537 2.92356 8.02888 2.93117C7.99568 2.97007 7.95141 3.04463 7.91703 3.15433C7.64171 4.03276 7.03579 4.80932 6.16485 5.29623C5.35277 5.75023 4.44053 5.87994 3.58942 5.72942C3.48803 5.71149 3.41115 5.7168 3.36817 5.72711C3.36105 5.72881 3.35578 5.73038 3.35206 5.73164C2.76164 6.42428 2.28633 7.20934 1.9524 8.05952C1.95367 8.06397 1.95557 8.06988 1.95841 8.07742C1.97891 8.13177 2.03157 8.21659 2.12394 8.30249C2.84826 8.97613 3.30788 9.93352 3.30788 10.9998C3.30788 12.0661 2.84826 13.0234 2.12392 13.6971C2.03156 13.783 1.97889 13.8678 1.9584 13.9222C1.95556 13.9297 1.95365 13.9356 1.95238 13.94C2.28633 14.7903 2.76167 15.5754 3.35213 16.268C3.35585 16.2693 3.36112 16.2709 3.36823 16.2726C3.41121 16.2829 3.48809 16.2882 3.58948 16.2703C4.44058 16.1197 5.35282 16.2495 6.16489 16.7035C7.03581 17.1904 7.64173 17.9669 7.91705 18.8453C7.95143 18.955 7.9957 19.0295 8.0289 19.0684C8.03539 19.0761 8.04043 19.0812 8.04397 19.0845C8.67137 19.2252 9.326 19.2998 9.9999 19.2998C10.6738 19.2998 11.3283 19.2252 11.9557 19.0845C11.9592 19.0812 11.9643 19.0761 11.9708 19.0685C12.004 19.0295 12.0483 18.955 12.0826 18.8452C12.3578 17.9665 12.9638 17.1897 13.835 16.7027C14.6472 16.2486 15.5596 16.119 16.4108 16.2696C16.5122 16.2875 16.5891 16.2822 16.6321 16.2719C16.6392 16.2702 16.6445 16.2686 16.6482 16.2674C17.2385 15.5748 17.7136 14.7899 18.0475 13.9399C18.0462 13.9355 18.0443 13.9296 18.0414 13.922C18.0209 13.8677 17.9683 13.7829 17.8759 13.697C17.1517 13.0233 16.6921 12.066 16.6921 10.9998C16.6921 9.93357 17.1517 8.97623 17.8759 8.3026C17.9683 8.2167 18.0209 8.13188 18.0414 8.07753C18.0443 8.07 18.0462 8.06409 18.0474 8.05964C17.7135 7.20939 17.2381 6.42426 16.6477 5.73158C16.6439 5.73032 16.6387 5.72874 16.6316 5.72704C16.5886 5.71674 16.5117 5.71143 16.4103 5.72935C15.5593 5.87983 14.6471 5.75011 13.835 5.29613C12.9641 4.80924 12.3582 4.03273 12.0829 3.15434C12.0485 3.04465 12.0042 2.9701 11.971 2.9312C11.9646 2.92359 11.9595 2.91845 11.956 2.91513C11.3285 2.77442 10.6739 2.6998 9.9999 2.6998C9.32599 2.6998 8.67135 2.77441 8.04395 2.9151ZM18.0499 8.04879C18.0499 8.04879 18.0499 8.04917 18.0497 8.04997ZM1.94996 13.9509C1.94994 13.9509 1.94997 13.9505 1.95009 13.9497ZM6.05004 10.9998C6.05004 8.81828 7.81851 7.0498 10 7.0498C12.1816 7.0498 13.95 8.81828 13.95 10.9998C13.95 13.1813 12.1816 14.9498 10 14.9498C7.81851 14.9498 6.05004 13.1813 6.05004 10.9998ZM10 8.9498C8.86785 8.9498 7.95004 9.86762 7.95004 10.9998C7.95004 12.132 8.86785 13.0498 10 13.0498C11.1322 13.0498 12.05 12.132 12.05 10.9998C12.05 9.86762 11.1322 8.9498 10 8.9498Z" fill="#505866"/>
</svg>
