<svg width="16" height="16" viewBox="0 0 16 16" fill="none" xmlns="http://www.w3.org/2000/svg">
<path fill-rule="evenodd" clip-rule="evenodd" d="M0.613457 0.613213C0.964929 0.261741 1.53478 0.261741 1.88625 0.613213L7.99985 6.72682L14.1134 0.613213C14.4649 0.261741 15.0348 0.261741 15.3862 0.613213C15.7377 0.964685 15.7377 1.53453 15.3862 1.88601L9.27264 7.99961L15.3862 14.1132C15.7377 14.4647 15.7377 15.0345 15.3862 15.386C15.0348 15.7375 14.4649 15.7375 14.1134 15.386L7.99985 9.2724L1.88625 15.386C1.53478 15.7375 0.964929 15.7375 0.613457 15.386C0.261986 15.0345 0.261986 14.4647 0.613457 14.1132L6.72706 7.99961L0.613457 1.88601C0.261986 1.53453 0.261986 0.964685 0.613457 0.613213Z" fill="#505866"/>
</svg>
