<svg width="20" height="20" viewBox="0 0 20 20" fill="none" xmlns="http://www.w3.org/2000/svg">
<path fill-rule="evenodd" clip-rule="evenodd" d="M19.504 10.2253C19.504 9.5235 19.4413 8.8481 19.3236 8.2002H10V12.0293H15.3284C15.0985 13.2668 14.4011 14.3162 13.3528 15.018V17.5018H16.5516C18.4238 15.7781 19.504 13.2404 19.504 10.2253Z" fill="#3D82F0"/>
<path fill-rule="evenodd" clip-rule="evenodd" d="M10.0001 19.8999C12.6731 19.8999 14.9138 19.0133 16.5517 17.5019L13.3529 15.017C12.4663 15.611 11.3322 15.9619 10.0001 15.9619C7.42173 15.9619 5.23933 14.2206 4.46053 11.8809H1.15283V14.4461C2.78193 17.6812 6.13033 19.8999 10.0001 19.8999Z" fill="#31A752"/>
<path fill-rule="evenodd" clip-rule="evenodd" d="M4.4605 11.8809C4.2625 11.2869 4.1503 10.6522 4.1503 9.99991C4.1503 9.34761 4.2625 8.71291 4.4605 8.11891V5.55371H1.1528C0.482898 6.89021 0.100098 8.40271 0.100098 9.99991C0.100098 11.5971 0.482898 13.1096 1.1528 14.4461L4.4605 11.8809Z" fill="#F9BA00"/>
<path fill-rule="evenodd" clip-rule="evenodd" d="M10.0001 4.03761C11.4532 4.03761 12.7589 4.53701 13.7841 5.51821L16.6243 2.67911C14.9094 1.08081 12.6687 0.0996094 10.0001 0.0996094C6.13033 0.0996094 2.78193 2.31831 1.15283 5.55451L4.46053 8.11861C5.23933 5.77891 7.42173 4.03761 10.0001 4.03761Z" fill="#E64234"/>
</svg>
