<svg width="20" height="18" viewBox="0 0 20 18" fill="none" xmlns="http://www.w3.org/2000/svg">
<path fill-rule="evenodd" clip-rule="evenodd" d="M10.0003 0.154297C4.79578 0.154297 0.571777 3.43544 0.571777 7.47087C0.571777 9.9883 2.20292 12.1852 4.69206 13.524L3.64549 17.3614C3.62575 17.4378 3.62981 17.5183 3.65714 17.5923C3.68447 17.6662 3.73376 17.73 3.7984 17.7752C3.86303 17.8203 3.93993 17.8446 4.01877 17.8448C4.09761 17.845 4.17463 17.8211 4.23949 17.7763L8.82178 14.7309C9.20835 14.7309 9.60435 14.7969 10.0003 14.7969C15.2049 14.7969 19.4289 11.5157 19.4289 7.47087C19.4289 3.42601 15.2049 0.154297 10.0003 0.154297Z" fill="#151719"/>
</svg>
