<svg width="94" height="44" viewBox="0 0 94 44" fill="none" xmlns="http://www.w3.org/2000/svg">
<path d="M0.728 27.16V20.824H16.424V18.088H2.552V1.912H19.016V8.344H10.76V11.656H19.016V16.312H20.6V1.912H38.648V8.344H28.808V11.656H38.84V18.088H24.632V20.824H40.424V27.16H0.728ZM2.552 35.944V29.512H38.648V43.384H30.44V35.944H2.552ZM42.5068 27.16V20.824H58.2028V18.088H44.3308V1.912H60.7948V8.344H52.5388V11.656H60.7948V16.312H62.3788V1.912H80.4268V8.344H70.5868V11.656H80.6188V18.088H66.4108V20.824H82.2028V27.16H42.5068ZM44.3308 35.944V29.512H80.4268V43.384H72.2188V35.944H44.3308ZM84.7655 0.567997H92.9735V29.896H84.7655V0.567997ZM93.4055 42.472H84.2855V33.496H93.4055V42.472Z" fill="#25D085"/>
</svg>
