<svg xmlns="http://www.w3.org/2000/svg" width="32" height="32" viewBox="0 0 32 32" fill="none">
  <path d="M8.56218 16.9209L3.48364 21.6113C3.32922 21.7546 3.45557 22.0146 3.66074 21.9749L10.8633 20.5888C10.9843 20.5657 11.0977 20.6538 11.1074 20.7795L11.4151 24.7217C11.427 24.8738 11.589 24.963 11.7207 24.8892L17.1049 21.8658C17.1794 21.824 17.2722 21.8328 17.3381 21.889L23.2179 26.9496C23.3583 27.0708 23.5721 26.9584 23.557 26.7722L23.1758 21.8857C23.1661 21.759 23.2665 21.6532 23.3907 21.6587L31.7844 22.0223C32.0014 22.0322 32.0835 21.7369 31.8945 21.6278L24.7264 17.5247C24.5947 17.4487 24.5839 17.2581 24.7081 17.1688L29.4443 13.7378C29.6085 13.6188 29.5253 13.3544 29.3245 13.3555L24.2168 13.3687C24.071 13.3687 23.9706 13.2199 24.0235 13.0811L25.4024 9.49031C25.4715 9.31072 25.2869 9.13884 25.1174 9.22478L19.9244 11.8779C19.8229 11.9297 19.6997 11.889 19.6479 11.7865L16.7777 6.11437C16.7032 5.96562 16.4969 5.96122 16.4148 6.10555L13.7098 10.9017C13.6494 11.0097 13.51 11.0406 13.4107 10.9678L8.41748 7.33848C8.24794 7.21508 8.02549 7.39688 8.10756 7.593L10.1614 12.5093C10.2241 12.6591 10.1042 12.8211 9.94654 12.8013L0.232213 11.5838C0.00544466 11.5551 -0.0917418 11.868 0.10911 11.9782L8.52006 16.5783C8.64641 16.6477 8.66692 16.8229 8.5611 16.9198L8.56218 16.9209Z" fill="#25D085"/>
</svg>